<svg  xmlns="http://www.w3.org/2000/svg" xmlns:xlink="http://www.w3.org/1999/xlink" width="966" height="300" viewBox="0 0 990 324"><path transform="translate(0 100)" d="M45.4,7.3Q46,3.1 46,0.4L46.1,-25.4L24.3,-24.5L24.6,-21.5L24.6,-21.2Q24.6,-19.3 22.7,-19.3Q21.5,-19.3 19.6,-20.2Q17.7,-21.1 17.7,-23.2L17.7,-24Q17.9,-25.6 17.9,-26.95Q17.9,-28.3 17.7,-29.7L15.9,-51.5Q15.7,-54.7 14.55,-56.55Q13.4,-58.4 13.4,-59.1Q13.4,-59.8 14.8,-59.8Q16.2,-59.8 21.5,-57.7L46.3,-59.2L46.4,-76.4Q46.4,-78.5 45.65,-79.95Q44.9,-81.4 44.9,-82.1Q44.9,-82.8 45.65,-82.8Q46.4,-82.8 48.1,-82.5Q53,-81.6 53,-78.8L52.9,-59.6L79.9,-61.2Q80.6,-61.3 81.2,-61.3L82.1,-61.3Q85.6,-61.3 86.6,-58.6Q87,-57.6 87,-57.05Q87,-56.5 86.6,-55.85Q86.2,-55.2 86.1,-54.5L83.3,-32.9Q86.1,-29.7 86.1,-28.6Q86.1,-27.5 85.1,-27.3Q84.1,-27.1 82.7,-27L52.7,-25.7L52.5,8.9Q52.5,11.4 50.5,11.4Q48.3,11.4 46.85,10.1Q45.4,8.8 45.4,7.3ZM79.5,-55.2L52.9,-53.7L52.7,-31.5L77.1,-32.6L79.5,-55.2ZM46.3,-53.3L22,-51.9L23.9,-30.2L46.2,-31.2L46.3,-53.3Z"></path><path transform="translate(100 100)" d="M9.7,-59.2Q12.2,-58.7 14.9,-58.7L16.2,-58.7L46.3,-60.5L46.2,-73Q46.2,-75.3 45.4,-76.45Q44.6,-77.6 44.6,-78.3Q44.6,-79 46.45,-79Q48.3,-79 50.65,-78.2Q53,-77.4 53,-76.1L52.9,-60.9L81.4,-62.6Q84.7,-62.9 85.75,-63.2Q86.8,-63.5 87.7,-63.5Q88.6,-63.5 89.95,-62.55Q91.3,-61.6 92.25,-60.5Q93.2,-59.4 93.2,-58.8Q93.2,-57.4 91.3,-57.2L73,-56.1Q69.8,-47.6 64.85,-38.85Q59.9,-30.1 54.6,-23.4Q72.9,-6 94.3,2.6Q95.7,3.1 95.7,3.65Q95.7,4.2 94.7,5.5Q92,8.8 89.7,8.8Q89.2,8.8 88.8,8.6Q67.9,-1.3 50.4,-18.6Q38.8,-6.5 23.5,1.4Q17.1,4.7 12.6,6.35Q8.1,8 6.8,8Q5.5,8 5.5,7.3Q5.5,6.4 7.4,5.4Q23,-3 35.4,-13Q41.6,-18.1 46,-23.1Q36.5,-34.1 27.1,-53.5L18.5,-53Q16.7,-52.8 15.1,-52.8Q13.5,-52.8 12.3,-53.3Q10.7,-54.1 9.4,-57Q9.2,-57.5 9.05,-57.8Q8.9,-58.1 8.9,-58.5Q8.9,-59.2 9.7,-59.2ZM33.8,-53.9Q41.6,-37.7 50.1,-28Q59.7,-40.5 64.9,-55.7L33.8,-53.9Z"></path><path transform="translate(200 100)" d="M85,0.4L85.3,4.1Q85.3,6 83.9,7.55Q82.5,9.1 80.95,9.1Q79.4,9.1 77.25,7.95Q75.1,6.8 72.7,5.05Q70.3,3.3 68.2,1.45Q66.1,-0.4 64.75,-1.95Q63.4,-3.5 63.4,-4.2Q63.4,-4.9 64.3,-4.9Q65.2,-4.9 69.85,-2.65Q74.5,-0.4 78.7,0.6L79.3,-67.8L20.9,-64.2L20.9,6Q20.9,8.7 18.9,8.7Q18.8,8.7 17.5,8.35Q16.2,8 15,6.9Q13.8,5.8 13.8,4.45Q13.8,3.1 14.15,1.4Q14.5,-0.3 14.5,-3.2L14.6,-63.9Q14.6,-67.7 13.8,-69.05Q13,-70.4 13,-71.25Q13,-72.1 14.45,-72.1Q15.9,-72.1 21.2,-69.8L80.4,-73.6L81.7,-73.6Q83.8,-73.6 85,-72.45Q86.2,-71.3 86.2,-69.9L85.7,-68L85,0.4ZM61.5,-42.5Q63.6,-51.3 64.2,-58.7L64.2,-59.5Q64.2,-60.8 63.95,-61.55Q63.7,-62.3 63.7,-62.8Q63.7,-63.3 64.25,-63.3Q64.8,-63.3 66.2,-62.9Q70.5,-61.7 70.5,-59.7Q70.5,-56.6 69,-49.55Q67.5,-42.5 65.6,-37L67.1,-35Q76.3,-22.7 76.3,-20.8Q76.3,-19.8 75,-18.6Q73.7,-17.4 72.6,-17.4Q71.5,-17.4 70.4,-19.3Q68.9,-22.3 63.3,-30.6Q59.7,-21.5 55.5,-14.85Q51.3,-8.2 47.9,-4.6Q44.5,-1 43.5,-1Q42.5,-1 42.5,-1.8Q42.5,-2.9 43.9,-4.7Q53.8,-17.1 59.6,-35.8Q53.9,-43.7 51.25,-46.7Q48.6,-49.7 48.6,-50.35Q48.6,-51 49.8,-52.2Q50.9,-53.1 51.5,-53.1Q52.1,-53.1 53.6,-51.85Q55.1,-50.6 61.5,-42.5ZM28.6,-51.8Q30.2,-51.8 37.6,-40.9Q40.1,-49.2 41.1,-57.5L41.1,-57.9Q41.1,-59.2 40.8,-60.15Q40.5,-61.1 40.5,-61.3Q40.5,-62 41.45,-62Q42.4,-62 43.7,-61.6Q47.1,-60.6 47.1,-58.3L47.1,-57.9Q45.4,-46.6 41.3,-35.4Q50.1,-22.5 50.1,-21.15Q50.1,-19.8 48.75,-18.65Q47.4,-17.5 46.4,-17.5Q45.4,-17.5 44.3,-19.6Q42.1,-23.8 38.8,-29.3Q33.6,-17.3 27.2,-10.2Q24.5,-7.2 23.65,-7.2Q22.8,-7.2 22.8,-8.1Q22.8,-9 23.8,-10.6Q30.4,-20.3 35.6,-34.6Q30.9,-42 26.4,-47.4Q26.1,-47.9 25.85,-48.3Q25.6,-48.7 25.6,-49.35Q25.6,-50 26.8,-50.9Q28,-51.8 28.6,-51.8Z"></path><path transform="translate(300 100)" d="M21.9,-60.8Q16.6,-47 14.9,-45.6Q14.4,-45.2 14.1,-45.2Q13.8,-45.2 12.7,-45.6Q9.6,-46.9 9.6,-48.6Q9.6,-48.9 12.45,-54.35Q15.3,-59.8 18.7,-69.9Q19.3,-71.9 20.7,-71.9Q21.3,-71.9 22.3,-71.6Q24.7,-70.7 24.7,-69.4Q24.7,-69.1 24.5,-68.3L23.8,-66.3L46.6,-67.6L46.5,-75.6Q46.5,-77.5 45.5,-78.95Q44.5,-80.4 44.5,-80.8Q44.5,-81.6 45.75,-81.6Q47,-81.6 49,-81.1Q53.2,-80 53.2,-78.2L53,-68L86.6,-69.9L87.5,-69.9Q89.5,-69.9 90.85,-68.7Q92.2,-67.5 92.2,-66.55Q92.2,-65.6 91.5,-65Q90.8,-64.4 90.55,-63.95Q90.3,-63.5 89.4,-62Q80.9,-49.1 78.3,-49.1Q77.5,-49.1 77.5,-50.05Q77.5,-51 79.5,-54.55Q81.5,-58.1 83.6,-64.1L21.9,-60.8ZM26,-51.2L29.9,-50.6L31.4,-50.6Q31.8,-50.6 32.2,-50.7L66.7,-53.3Q67.2,-53.4 67.6,-53.4L68.2,-53.4Q71.1,-53.4 73,-50.8Q73.8,-49.8 73.8,-49Q73.8,-48.2 72.8,-47.5Q71.8,-46.8 71.3,-46.3Q62.1,-37.1 53.1,-31.2L54.3,-27.5L83.4,-28.8Q86.6,-29.1 87.55,-29.45Q88.5,-29.8 89,-29.8Q89.5,-29.8 90.9,-29Q94.7,-26.6 94.7,-24.8Q94.7,-23.6 92.1,-23.4L55.6,-21.8Q56.3,-17.6 56.6,-9.2L56.6,-7.5Q56.6,7.4 52.4,9.6Q51.4,10.1 50.35,10.1Q49.3,10.1 45.15,8Q41,5.9 35.2,1.25Q29.4,-3.4 29.4,-4.7Q29.4,-5.2 30.2,-5.2Q31,-5.2 32.9,-4.3Q40.1,-0.6 44.45,0.8Q48.8,2.2 49.1,2.2Q49.4,2.2 49.85,-0.6Q50.3,-3.4 50.3,-9.55Q50.3,-15.7 49.3,-21.5L14.8,-20.1L12,-20Q10,-20 9.2,-21Q6.6,-24.5 6.6,-25.4Q6.6,-26.3 7,-26.3Q7.4,-26.3 8.55,-25.95Q9.7,-25.6 12,-25.6L12.9,-25.6L47.9,-27.2Q46.8,-31.1 45.6,-33.4Q44.4,-35.7 44.4,-36.65Q44.4,-37.6 45.55,-38.25Q46.7,-38.9 48.05,-38.9Q49.4,-38.9 50.7,-36.4Q59.7,-42.6 63.8,-47.4L34.3,-45Q32.5,-44.8 30.8,-44.8Q29.1,-44.8 27.85,-46.05Q26.6,-47.3 25.95,-48.7Q25.3,-50.1 25.3,-50.5Q25.3,-51.2 26,-51.2Z"></path><path transform="translate(400 100)" d="M24.7,-42.4L13.3,-41.3Q12.7,-41.2 12.2,-41.2L11.1,-41.2Q8.4,-41.2 6.65,-43.1Q4.9,-45 4.9,-46Q4.9,-47 5.6,-47Q8.2,-46.6 9.2,-46.6L10.5,-46.6Q10.9,-46.6 11.3,-46.7L28.2,-48.5Q29,-48.5 30.65,-47.45Q32.3,-46.4 32.3,-45.35Q32.3,-44.3 31.6,-43.7L30.9,-43L29.6,-10.6Q31.5,-11.8 37,-15.8Q42.5,-19.8 43.7,-19.85Q44.9,-19.9 44.95,-19.3Q45,-18.7 43.2,-16.8Q41.4,-14.9 35.8,-8.95Q30.2,-3 27.7,-1.55Q25.2,-0.1 24.05,0.05Q22.9,0.2 21.15,-0.9Q19.4,-2 18.05,-3.35Q16.7,-4.7 16.6,-5.3Q16.6,-5.8 18.55,-6.15Q20.5,-6.5 23.4,-7.6L24.7,-42.4ZM46.4,-42.1Q43.7,-42.1 41.85,-43.35Q40,-44.6 39.4,-48.3Q39.4,-48.8 39.65,-48.8Q39.9,-48.8 40.95,-48.35Q42,-47.9 44.4,-47.9L45.7,-47.9L63.8,-48.8L63.8,-74.9Q63.8,-77.8 62.4,-79.2Q62,-79.7 62,-80.2Q62,-81 63.35,-81Q64.7,-81 66.8,-80.35Q68.9,-79.7 69.45,-79.15Q70,-78.6 70,-77.3L70,-49.2L85.4,-50Q88.8,-50.3 89.7,-50.65Q90.6,-51 91,-51Q91.4,-51 92.6,-50.1Q96.1,-47.5 96.1,-45.9Q96.1,-44.8 93.9,-44.6L70,-43.3L70,7.2Q70,9.8 68.2,9.8Q68,9.8 66.65,9.35Q65.3,8.9 64.05,7.8Q62.8,6.7 62.8,5.5Q62.8,4.3 63.25,2.5Q63.7,0.7 63.7,-2.1L63.8,-43L48.5,-42.2Q48,-42.1 47.4,-42.1L46.4,-42.1ZM37.9,-60.1Q37.9,-59.2 36.35,-57.9Q34.8,-56.6 33.6,-56.6Q32.4,-56.6 30.5,-59.1Q24.9,-66.1 18.8,-71.5Q17.6,-72.6 17.6,-73.25Q17.6,-73.9 18.45,-75.1Q19.3,-76.3 20.35,-76.3Q21.4,-76.3 23.3,-74.85Q25.2,-73.4 27.7,-71.25Q30.2,-69.1 32.5,-66.8Q34.8,-64.5 36.35,-62.75Q37.9,-61 37.9,-60.1Z"></path><path transform="translate(500 100)" d="M89.5,1.9L89.7,5.3Q89.7,7.1 88.15,8.85Q86.6,10.6 85.1,10.6Q83.6,10.6 81.5,9.3Q79.4,8 76.9,6.05Q74.4,4.1 72.2,2Q70,-0.1 68.55,-1.75Q67.1,-3.4 67.1,-4Q67.1,-4.6 68,-4.6Q68.9,-4.6 73.35,-2.3Q77.8,-0 83,2.1L83,-74.8Q83,-77 82.05,-78.4Q81.1,-79.8 81.1,-80.45Q81.1,-81.1 82.45,-81.1Q83.8,-81.1 86.1,-80.25Q88.4,-79.4 88.95,-78.8Q89.5,-78.2 89.5,-77.1L89.5,1.9ZM65.6,-56.9Q65.6,-59.3 64.3,-61.4Q64,-62 64,-62.3Q64,-63.1 65.15,-63.1Q66.3,-63.1 68.4,-62.35Q70.5,-61.6 70.95,-60.95Q71.4,-60.3 71.4,-59.2L71.3,-15Q71.3,-12.9 69.7,-12.9Q67.6,-12.9 66.15,-14.25Q64.7,-15.6 64.7,-17L64.7,-17.5Q64.7,-17.8 65,-19.15Q65.3,-20.5 65.3,-23.6L65.6,-56.9ZM45.2,-40L45.2,-41.7Q45.3,-43.3 46.3,-43.4Q46.7,-43.4 48.1,-42.6Q52,-40.4 52,-37.9Q51.9,-37.3 50.1,-34Q45.1,-24.6 38.2,-16.2Q42.9,-6.6 50.4,-0.3Q50.7,-0.1 51.1,-0.1Q53.1,-0.1 56.6,-15L57,-16.6Q57.2,-18.3 57.8,-19.1Q58.4,-19.9 58.9,-19.9Q60.4,-19.9 60.3,-16.6L60.2,-16.2Q59.7,-5.9 57.5,2.1Q56.8,4.6 55.85,6.05Q54.9,7.5 53.2,7.5Q51.5,7.5 48.45,5.9Q45.4,4.3 41.65,0.2Q37.9,-3.9 34,-11.5Q26.9,-4 17.6,2.1Q9.2,7.4 7.4,7.4Q6.5,7.5 6.55,6.75Q6.6,6 8,4.9Q23,-6.7 31.5,-16.7Q27.1,-25.9 23.7,-43.9L15.1,-42.5Q14.1,-42.3 12.8,-42.3Q10.6,-42.2 8.5,-46.2L8.3,-46.8Q8.3,-47.5 9.2,-47.5L9.4,-47.5Q9.9,-47.4 10.3,-47.4L11.1,-47.5Q12.6,-47.5 14.4,-47.8L22.9,-49.2Q21.2,-59.8 20.8,-72.4Q20.7,-75.3 18.5,-76.9Q18,-77.2 18,-77.7Q18,-78.2 20.55,-78.25Q23.1,-78.3 24.85,-77.55Q26.6,-76.8 26.6,-75.4L26.6,-75.2Q27.1,-61.3 28.6,-50.1L49.4,-53.6Q51.1,-53.9 52.1,-54.35Q53.1,-54.8 53.85,-54.85Q54.6,-54.9 55.6,-54.1Q58.3,-52.1 58.1,-51Q58.1,-49.6 55.5,-49.3L29.4,-44.8Q31.2,-34.8 35.7,-22.2Q40.5,-28.7 42.85,-33.6Q45.2,-38.5 45.2,-40ZM48.9,-60Q47.5,-58.8 46.6,-58.8Q45.7,-58.8 43.15,-62.35Q40.6,-65.9 34.7,-71.1Q33.4,-72.3 33.4,-73.2Q33.4,-74.1 34.6,-75.1Q35.8,-76.1 36.45,-76.1Q37.1,-76.1 39.6,-74.2Q42.1,-72.3 46.2,-68Q50.3,-63.7 50.3,-62.45Q50.3,-61.2 48.9,-60Z"></path><path transform="translate(0 200)" d="M24.9,-1.8L25.1,-10.7L25.2,-63.2L12.6,-62.5Q10.1,-62.4 7.75,-62.05Q5.4,-61.7 4.3,-61.6L4.2,-61.6Q2.9,-61.6 1.9,-63.4Q0.9,-65.2 0.9,-66.85Q0.9,-68.5 2.2,-68.5L9.3,-68.3L44.7,-70.2Q47,-70.4 49.4,-70.6Q51.8,-70.8 53,-71L53.3,-71Q54.5,-71 55.4,-69.2Q56.3,-67.4 56.3,-65.75Q56.3,-64.1 55.1,-64.1L47.1,-64.4L32.2,-63.6L32.3,-10.6L32.6,-0Q32.6,1.1 30.65,1.1Q28.7,1.1 26.8,0.3Q24.9,-0.5 24.9,-1.8Z"></path><path transform="translate(58 200)" d="M49.6,-10.5L49.9,0.1Q49.9,1.1 48.15,1.1Q46.4,1.1 44.6,0.35Q42.8,-0.4 42.8,-1.6L42.8,-1.7Q42.9,-2.5 42.9,-4.4L43,-11.5L43,-29.3Q43,-35.2 41.4,-38.75Q39.8,-42.3 34.8,-42.3Q26.9,-42.3 21.55,-36.55Q16.2,-30.8 16,-16.2Q15.9,-12.9 15.8,-10.5L15.8,-8.9Q15.8,-5.9 16.1,0.1Q16.1,1.1 14.35,1.1Q12.6,1.1 10.8,0.35Q9,-0.4 9,-1.7L9.2,-11.5L9.2,-59L8.9,-69.7Q8.9,-70.7 10.65,-70.7Q12.4,-70.7 14.2,-69.95Q16,-69.2 16,-67.9L15.8,-58L15.8,-37.6Q19,-42.9 24.15,-45.7Q29.3,-48.5 34.4,-48.5Q43.6,-48.5 47,-42.2Q49.6,-37.6 49.6,-29.7L49.6,-10.5Z"></path><path transform="translate(117 200)" d="M15.5,-25.2Q26.7,-25.2 36.2,-27.8Q39.8,-28.9 40.85,-30.2Q41.9,-31.5 41.9,-34.1Q41.9,-42.8 31.8,-42.8Q24.9,-42.8 19.9,-37.05Q14.9,-31.3 13.5,-25.2L15.5,-25.2ZM6,-25.4L6.9,-25.5Q8.4,-33.4 15.5,-41Q22.6,-48.6 31.9,-48.6Q38.1,-48.6 41.8,-46.4Q48.5,-42.5 48.5,-34Q48.5,-30.6 47.95,-28.6Q47.4,-26.6 45.4,-25.35Q43.4,-24.1 38.9,-22.7Q28.9,-19.6 14,-19.6L12.7,-19.6L12.7,-18.6Q12.7,-12.1 16.05,-8.1Q19.4,-4.1 25.1,-4.1Q37.7,-4.1 45.5,-12.5Q46.8,-14 47.8,-14Q48.8,-14 48.8,-12.95Q48.8,-11.9 47.35,-9.6Q45.9,-7.3 42.9,-4.6Q35.6,1.8 24.4,1.8Q19.3,1.8 15.15,-0.75Q11,-3.3 8.6,-8.1Q6.2,-12.9 6.2,-19.5L6.2,-20.9Q4.1,-22.5 4.1,-24.1Q4.1,-25.4 6,-25.4Z"></path><path transform="translate(171 200)" d=""></path><path transform="translate(206 200)" d="M31.8,-64.8Q24.7,-64.8 17.6,-62.8L17.6,-36.2Q18.2,-36.6 18.9,-36.6Q35.6,-37.7 42.95,-42.65Q50.3,-47.6 50.3,-54.1Q50.3,-64.8 31.8,-64.8ZM32,-71.1Q57.5,-71.1 57.5,-54.2Q57.5,-45.9 52,-40.7Q42.7,-32 21.5,-32L20,-32Q18.6,-32 17.6,-32.5L17.6,-11.5L17.9,0.1Q17.9,1.1 16.05,1.1Q14.2,1.1 12.3,0.35Q10.4,-0.4 10.4,-1.7L10.6,-11.6L10.6,-61.8L10.5,-61.8Q9,-61.8 7.5,-63.6Q6,-65.4 6,-66.55Q6,-67.7 6.9,-67.8Q23.5,-71 26.4,-71.05Q29.3,-71.1 32,-71.1Z"></path><path transform="translate(268 200)" d="M9.2,-1.8L9.4,-10.6L9.4,-36.7L9.1,-47.4Q9.1,-48.4 10.9,-48.4Q12.7,-48.4 14.55,-47.65Q16.4,-46.9 16.4,-45.75Q16.4,-44.6 16.25,-43.4Q16.1,-42.2 16.1,-40.5Q18.1,-43.8 21.8,-46.2Q25.5,-48.6 29.6,-48.6Q33.7,-48.6 36.3,-47.6Q38.9,-46.6 40.55,-45.2Q42.2,-43.8 42.2,-42.4Q42.2,-41 41.05,-39.2Q39.9,-37.4 38.85,-37.4Q37.8,-37.4 37.2,-38.4Q36.2,-40.3 34.05,-41.2Q31.9,-42.1 30.4,-42.1Q26.2,-42.1 22.6,-39.5Q17.4,-35.7 16.4,-26.6Q16,-23 16,-10.6L16.5,-0Q16.5,1 14.7,1Q12.9,1 11.05,0.25Q9.2,-0.5 9.2,-1.8Z"></path><path transform="translate(311 200)" d="M26.7,-4.3Q31.6,-4.3 35.45,-6.95Q39.3,-9.6 41.6,-14.2Q43.9,-18.8 43.9,-25.8Q43.9,-32.8 40.65,-37.7Q37.4,-42.6 30.1,-42.6Q22.8,-42.6 17.55,-35.75Q12.3,-28.9 12.3,-20.75Q12.3,-12.6 16.05,-8.45Q19.8,-4.3 26.7,-4.3ZM19.4,-44.5Q24.9,-48.6 30.9,-48.6Q36.9,-48.6 41.3,-45.7Q50.6,-39.6 50.6,-24.5Q50.6,-14.3 44.4,-6.6Q37.8,1.8 27.25,1.8Q16.7,1.8 11.15,-4.25Q5.6,-10.3 5.6,-20.7Q5.6,-28.7 10.6,-37.4Q12.6,-41 14.6,-43.2Q16.6,-45.4 17.65,-45.4Q18.7,-45.4 19.4,-44.5Z"></path><path transform="translate(367 200)" d="M20.9,-45.7L20.7,-36.4L20.7,3Q20.7,10.5 16.8,14.1Q14.6,16.2 10.2,16.2Q5.8,16.2 2.95,14.65Q0.1,13.1 0.1,11.45Q0.1,9.8 1.1,8.2Q2.1,6.6 3.2,6.6Q4.3,6.6 5.4,7.9Q7,10 10.4,10Q12.1,10 13,8.1Q13.9,6.2 13.9,3.1L13.9,-36.4L13.6,-47.5Q13.6,-48.5 15.4,-48.5Q17.2,-48.5 19.05,-47.75Q20.9,-47 20.9,-45.7ZM20.75,-67.8Q22.3,-65.8 22.3,-63.75Q22.3,-61.7 21,-60.35Q19.7,-59 17.6,-59Q15.5,-59 13.95,-60.95Q12.4,-62.9 12.4,-64.95Q12.4,-67 13.65,-68.4Q14.9,-69.8 17.05,-69.8Q19.2,-69.8 20.75,-67.8Z"></path><path transform="translate(397 200)" d="M15.5,-25.2Q26.7,-25.2 36.2,-27.8Q39.8,-28.9 40.85,-30.2Q41.9,-31.5 41.9,-34.1Q41.9,-42.8 31.8,-42.8Q24.9,-42.8 19.9,-37.05Q14.9,-31.3 13.5,-25.2L15.5,-25.2ZM6,-25.4L6.9,-25.5Q8.4,-33.4 15.5,-41Q22.6,-48.6 31.9,-48.6Q38.1,-48.6 41.8,-46.4Q48.5,-42.5 48.5,-34Q48.5,-30.6 47.95,-28.6Q47.4,-26.6 45.4,-25.35Q43.4,-24.1 38.9,-22.7Q28.9,-19.6 14,-19.6L12.7,-19.6L12.7,-18.6Q12.7,-12.1 16.05,-8.1Q19.4,-4.1 25.1,-4.1Q37.7,-4.1 45.5,-12.5Q46.8,-14 47.8,-14Q48.8,-14 48.8,-12.95Q48.8,-11.9 47.35,-9.6Q45.9,-7.3 42.9,-4.6Q35.6,1.8 24.4,1.8Q19.3,1.8 15.15,-0.75Q11,-3.3 8.6,-8.1Q6.2,-12.9 6.2,-19.5L6.2,-20.9Q4.1,-22.5 4.1,-24.1Q4.1,-25.4 6,-25.4Z"></path><path transform="translate(451 200)" d="M47.7,-15.5Q48.6,-15.5 48.6,-14.6Q48.6,-13.7 47.2,-11.15Q45.8,-8.6 42.9,-5.6Q35.7,1.8 25,1.8Q19.8,1.8 15.35,-0.65Q10.9,-3.1 8.25,-7.85Q5.6,-12.6 5.6,-19Q5.6,-25.4 7.85,-30.7Q10.1,-36 13.8,-40Q17.5,-44 22.1,-46.3Q26.7,-48.6 31.05,-48.6Q35.4,-48.6 38.2,-47.45Q41,-46.3 42.65,-44.7Q44.3,-43.1 45.05,-41.75Q45.8,-40.4 45.8,-40.1Q45.8,-38.5 44.3,-37Q42.8,-35.5 41.9,-35.5Q41,-35.5 40.7,-36Q40,-37.4 39.3,-38.7Q38.6,-40 37.5,-40.7Q34.6,-42.7 31.5,-42.7Q25.1,-42.7 18.8,-36Q12.4,-28.8 12.4,-19.9Q12.4,-14.7 14.4,-11.2Q18.3,-4 25.7,-4Q35.3,-4 45.3,-14Q46.8,-15.5 47.7,-15.5Z"></path><path transform="translate(504 200)" d="M18.3,-61.7L18.1,-52.8L18.1,-48L20.9,-48.1Q24.5,-48.3 28.5,-48.7L28.6,-48.7Q29.9,-48.7 30.85,-47.2Q31.8,-45.7 31.8,-44.3Q31.8,-42.9 30.7,-42.9L26.8,-42.9Q24,-42.9 22,-42.8L18.1,-42.7L18.1,-10.8Q18.1,-6.8 18.8,-5.7Q19.5,-4.6 21.4,-4.6Q25.6,-4.6 31,-8.7Q32.7,-10 33.7,-10Q34.7,-10 34.7,-9Q34.7,-6.9 30.2,-2.6Q25.2,1.8 20.4,1.8Q15.6,1.8 13.45,-1.4Q11.3,-4.6 11.3,-11L11.3,-42.4L10.8,-42.4Q10.7,-42.4 4.7,-42L4.6,-42Q3.3,-42 2.4,-43.5Q1.5,-45 1.5,-46.35Q1.5,-47.7 2.6,-47.7L11.3,-47.7L11.3,-52.8L11.1,-63.5Q11.1,-64.5 12.9,-64.5Q14.7,-64.5 16.5,-63.75Q18.3,-63 18.3,-61.7Z"></path><path transform="translate(540 200)" d=""></path><path transform="translate(575 200)" d="M10.2,-68.5Q10.2,-69.9 11.6,-69.9Q13,-69.9 14.9,-69.3Q16.8,-68.7 16.9,-68.6L44,-70.4Q46.3,-70.6 48.85,-70.9Q51.4,-71.2 52.55,-71.2Q53.7,-71.2 54.7,-69.45Q55.7,-67.7 55.7,-66.1Q55.7,-64.5 54.4,-64.5L48.2,-64.5Q45.5,-64.5 44.1,-64.4L17.6,-62.6L17.6,-40.3L38.5,-41.6Q40.8,-41.8 43.35,-42.1Q45.9,-42.4 47.05,-42.4Q48.2,-42.4 49.2,-40.65Q50.2,-38.9 50.2,-37.3Q50.2,-35.7 48.9,-35.7L42.6,-35.7Q40,-35.7 38.6,-35.6L17.6,-34.4L17.6,-10.7L17.9,-0.1Q17.9,0.9 16.05,0.9Q14.2,0.9 12.3,0.15Q10.4,-0.6 10.4,-1.9L10.6,-10.8L10.6,-34.4Q9.5,-35 8.7,-36.6Q7.9,-38.2 7.9,-39.3Q7.9,-40.4 8.7,-40.4L8.9,-40.4Q9.7,-40.2 10.6,-40.2L10.6,-63.4L10.2,-68.5Z"></path><path transform="translate(633 200)" d="M26.7,-4.3Q31.6,-4.3 35.45,-6.95Q39.3,-9.6 41.6,-14.2Q43.9,-18.8 43.9,-25.8Q43.9,-32.8 40.65,-37.7Q37.4,-42.6 30.1,-42.6Q22.8,-42.6 17.55,-35.75Q12.3,-28.9 12.3,-20.75Q12.3,-12.6 16.05,-8.45Q19.8,-4.3 26.7,-4.3ZM19.4,-44.5Q24.9,-48.6 30.9,-48.6Q36.9,-48.6 41.3,-45.7Q50.6,-39.6 50.6,-24.5Q50.6,-14.3 44.4,-6.6Q37.8,1.8 27.25,1.8Q16.7,1.8 11.15,-4.25Q5.6,-10.3 5.6,-20.7Q5.6,-28.7 10.6,-37.4Q12.6,-41 14.6,-43.2Q16.6,-45.4 17.65,-45.4Q18.7,-45.4 19.4,-44.5Z"></path><path transform="translate(689 200)" d="M9.2,-1.8L9.4,-10.6L9.4,-36.7L9.1,-47.4Q9.1,-48.4 10.9,-48.4Q12.7,-48.4 14.55,-47.65Q16.4,-46.9 16.4,-45.75Q16.4,-44.6 16.25,-43.4Q16.1,-42.2 16.1,-40.5Q18.1,-43.8 21.8,-46.2Q25.5,-48.6 29.6,-48.6Q33.7,-48.6 36.3,-47.6Q38.9,-46.6 40.55,-45.2Q42.2,-43.8 42.2,-42.4Q42.2,-41 41.05,-39.2Q39.9,-37.4 38.85,-37.4Q37.8,-37.4 37.2,-38.4Q36.2,-40.3 34.05,-41.2Q31.9,-42.1 30.4,-42.1Q26.2,-42.1 22.6,-39.5Q17.4,-35.7 16.4,-26.6Q16,-23 16,-10.6L16.5,-0Q16.5,1 14.7,1Q12.9,1 11.05,0.25Q9.2,-0.5 9.2,-1.8Z"></path><path transform="translate(732 200)" d=""></path><path transform="translate(767 200)" d="M0.9,-68.9Q0.9,-70.5 4.85,-70.5Q8.8,-70.5 9.2,-68.5L10.6,-63.2Q17,-41.5 23.6,-10Q27.1,-24.5 30.9,-37.4Q34.7,-50.3 36.75,-57.35Q38.8,-64.4 39,-67Q39,-69 42.7,-69Q44.5,-69 46.25,-68.4Q48,-67.8 48.1,-66.7Q48.3,-65.4 49.35,-61.95Q50.4,-58.5 54.75,-42Q59.1,-25.5 62.5,-9.9Q70.7,-39.7 74.35,-51.65Q78,-63.6 79.6,-70.1Q79.9,-71.1 81.25,-71.1Q82.6,-71.1 84,-70.6Q87.4,-69.2 87.4,-67.3Q87.4,-67 86.8,-65.6Q81.9,-54.1 68.3,-7.9Q67.9,-6.3 67.5,-4.45Q67.1,-2.6 66.6,-0.7Q66,1.8 63.95,1.8Q61.9,1.8 60,0.2Q58.1,-1.4 57.3,-4.6Q49.6,-37.8 43.9,-58.1Q40.5,-47.2 36.15,-31.55Q31.8,-15.9 30.45,-11.1Q29.1,-6.3 28.7,-4.55Q28.3,-2.8 27.55,-0.55Q26.8,1.7 24.95,1.7Q23.1,1.7 21.3,0.1Q19.5,-1.5 18.7,-4.6Q6.2,-56.2 1,-68.4Q0.9,-68.6 0.9,-68.9Z"></path><path transform="translate(855 200)" d="M15.5,-25.2Q26.7,-25.2 36.2,-27.8Q39.8,-28.9 40.85,-30.2Q41.9,-31.5 41.9,-34.1Q41.9,-42.8 31.8,-42.8Q24.9,-42.8 19.9,-37.05Q14.9,-31.3 13.5,-25.2L15.5,-25.2ZM6,-25.4L6.9,-25.5Q8.4,-33.4 15.5,-41Q22.6,-48.6 31.9,-48.6Q38.1,-48.6 41.8,-46.4Q48.5,-42.5 48.5,-34Q48.5,-30.6 47.95,-28.6Q47.4,-26.6 45.4,-25.35Q43.4,-24.1 38.9,-22.7Q28.9,-19.6 14,-19.6L12.7,-19.6L12.7,-18.6Q12.7,-12.1 16.05,-8.1Q19.4,-4.1 25.1,-4.1Q37.7,-4.1 45.5,-12.5Q46.8,-14 47.8,-14Q48.8,-14 48.8,-12.95Q48.8,-11.9 47.35,-9.6Q45.9,-7.3 42.9,-4.6Q35.6,1.8 24.4,1.8Q19.3,1.8 15.15,-0.75Q11,-3.3 8.6,-8.1Q6.2,-12.9 6.2,-19.5L6.2,-20.9Q4.1,-22.5 4.1,-24.1Q4.1,-25.4 6,-25.4Z"></path><path transform="translate(909 200)" d="M15.6,-10.1Q16,-10.3 16.3,-10.3Q17.4,-10.3 18.9,-8.1Q21.6,-4.1 27.5,-4.1Q33.4,-4.1 39.15,-10.5Q44.9,-16.9 44.9,-27.15Q44.9,-37.4 39.6,-41Q37.2,-42.6 33.8,-42.6Q30.4,-42.6 26.65,-40.4Q22.9,-38.2 19.7,-33.55Q16.5,-28.9 15.9,-20.9Q15.6,-16.7 15.6,-10.1ZM16.2,-68.1L15.8,-59.2L15.8,-36.9Q19.8,-43.7 24.45,-46.15Q29.1,-48.6 34.6,-48.6Q42.1,-48.6 46.9,-43.3Q51.7,-38 51.7,-28.7Q51.7,-19.4 48.4,-12.7Q45.1,-6 39.55,-2.15Q34,1.7 27.2,1.7Q23.3,1.7 20.25,0Q17.2,-1.7 15.5,-4.4L15.2,-2.6Q15,-1.6 13.5,-0.55Q12,0.5 10.7,0.5Q9,0.5 9,-1.5L9.2,-10.6L9.2,-59.3L8.9,-69.9Q8.9,-70.9 10.7,-70.9Q12.5,-70.9 14.35,-70.15Q16.2,-69.4 16.2,-68.1Z"></path></svg>